<svg xmlns="http://www.w3.org/2000/svg" viewBox="0 0 900 220">
  <defs>
    <linearGradient id="busGrad2" x1="0%" y1="0%" x2="100%" y2="100%">
      <stop offset="0%" stop-color="#2F7FF5"/>
      <stop offset="100%" stop-color="#1E5FD9"/>
    </linearGradient>
  </defs>

  <!-- icon mark, small -->
  <g transform="translate(10,10) scale(0.4)">
    <rect x="0" y="0" width="512" height="512" rx="112" fill="#0B0F1A"/>
    <rect x="52" y="206" width="30" height="96" rx="15" fill="#2F7FF5"/>
    <rect x="430" y="206" width="30" height="96" rx="15" fill="#2F7FF5"/>
    <path fill-rule="evenodd" clip-rule="evenodd"
      d="M96 150c0-38 31-69 69-69h182c38 0 69 31 69 69v90c0 38-31 69-69 69h-146l-70 62 6-62h-1c-22-6-40-30-40-63v-96z
         M132 158c0-24 20-44 44-44h160c24 0 44 20 44 44v78c0 24-20 44-44 44H196l-46 40 4-40c-22-2-22-24-22-40v-82z"
      fill="#2F7FF5"/>
    <rect x="196" y="208" width="42" height="66" rx="21" fill="#EAF2FF"/>
    <rect x="286" y="208" width="42" height="66" rx="21" fill="#EAF2FF"/>
    <path d="M212 300c14 16 34 24 54 24s40-8 54-24" stroke="#EAF2FF" stroke-width="16" stroke-linecap="round" fill="none"/>
    <rect x="372" y="88" width="16" height="52" rx="8" fill="#3ED6D1" transform="rotate(-18 380 114)"/>
    <rect x="404" y="102" width="16" height="66" rx="8" fill="#3ED6D1" transform="rotate(-18 412 135)"/>
    <rect x="436" y="122" width="16" height="80" rx="8" fill="#3ED6D1" transform="rotate(-18 444 162)"/>
    <rect x="296" y="322" width="176" height="128" rx="28" fill="url(#busGrad2)" stroke="#0B0F1A" stroke-width="10"/>
    <rect x="316" y="326" width="44" height="10" rx="5" fill="#EAF2FF"/>
    <rect x="316" y="346" width="136" height="52" rx="12" fill="#EAF2FF"/>
    <circle cx="336" cy="452" r="20" fill="#0B0F1A"/>
    <circle cx="336" cy="452" r="9" fill="#EAF2FF"/>
    <circle cx="432" cy="452" r="20" fill="#0B0F1A"/>
    <circle cx="432" cy="452" r="9" fill="#EAF2FF"/>
  </g>

  <!-- wordmark -->
  <text x="250" y="128" font-family="Arial, Helvetica, sans-serif" font-weight="800" font-size="92" fill="#EAF2FF">Urb<tspan fill="#2F7FF5">ico</tspan></text>
  <text x="252" y="168" font-family="Arial, Helvetica, sans-serif" font-weight="400" font-size="30" fill="#7C8BA8">Mobilidade assistida</text>
</svg>
